<mxfile host="app.diagrams.net" modified="2023-09-19T00:58:20.965Z" agent="Mozilla/5.0 (Windows NT 10.0; Win64; x64) AppleWebKit/537.36 (KHTML, like Gecko) Chrome/117.0.0.0 Safari/537.36" etag="MqSFircvXOFmEyrzqLWz" version="21.7.4" type="github">
  <diagram name="PÃ¡gina-1" id="jn1jPTVG08yo6Dco93Et">
    <mxGraphModel dx="1354" dy="751" grid="1" gridSize="10" guides="1" tooltips="1" connect="1" arrows="1" fold="1" page="1" pageScale="1" pageWidth="827" pageHeight="1169" math="0" shadow="0">
      <root>
        <mxCell id="0" />
        <mxCell id="1" parent="0" />
        <mxCell id="moIJlXgWbr4v8lHKHLA2-57" style="edgeStyle=orthogonalEdgeStyle;rounded=0;orthogonalLoop=1;jettySize=auto;html=1;entryX=0.5;entryY=1;entryDx=0;entryDy=0;entryPerimeter=0;" edge="1" parent="1" source="moIJlXgWbr4v8lHKHLA2-1" target="moIJlXgWbr4v8lHKHLA2-40">
          <mxGeometry relative="1" as="geometry" />
        </mxCell>
        <mxCell id="moIJlXgWbr4v8lHKHLA2-1" value="BaseVeiculo&lt;br&gt;&amp;lt;&amp;lt;Abstract&amp;gt;&amp;gt;" style="swimlane;fontStyle=1;align=center;verticalAlign=top;childLayout=stackLayout;horizontal=1;startSize=40;horizontalStack=0;resizeParent=1;resizeParentMax=0;resizeLast=0;collapsible=1;marginBottom=0;whiteSpace=wrap;html=1;" vertex="1" parent="1">
          <mxGeometry x="334" y="170" width="160" height="292" as="geometry" />
        </mxCell>
        <mxCell id="moIJlXgWbr4v8lHKHLA2-2" value="#nome: string&lt;br&gt;#modelo: string&lt;br&gt;#cor: string&amp;nbsp;&lt;br&gt;#anoModelo: int&lt;br&gt;#anoFabricacao: int&lt;br&gt;#fabricante: string&lt;br&gt;#tipoCombustivel: string&lt;br&gt;#nomeProprietario: string&lt;br&gt;#estadoUF: string (2)&lt;br&gt;#cidadeUF: string&lt;br&gt;#tipoVeiculo: string&lt;br&gt;#potencia: double" style="text;strokeColor=none;fillColor=none;align=left;verticalAlign=top;spacingLeft=4;spacingRight=4;overflow=hidden;rotatable=0;points=[[0,0.5],[1,0.5]];portConstraint=eastwest;whiteSpace=wrap;html=1;" vertex="1" parent="moIJlXgWbr4v8lHKHLA2-1">
          <mxGeometry y="40" width="160" height="200" as="geometry" />
        </mxCell>
        <mxCell id="moIJlXgWbr4v8lHKHLA2-3" value="" style="line;strokeWidth=1;fillColor=none;align=left;verticalAlign=middle;spacingTop=-1;spacingLeft=3;spacingRight=3;rotatable=0;labelPosition=right;points=[];portConstraint=eastwest;strokeColor=inherit;" vertex="1" parent="moIJlXgWbr4v8lHKHLA2-1">
          <mxGeometry y="240" width="160" height="8" as="geometry" />
        </mxCell>
        <mxCell id="moIJlXgWbr4v8lHKHLA2-4" value="+ BaseVeiculo(..., string, string, string, string)&lt;br&gt;&amp;nbsp;" style="text;strokeColor=none;fillColor=none;align=left;verticalAlign=top;spacingLeft=4;spacingRight=4;overflow=hidden;rotatable=0;points=[[0,0.5],[1,0.5]];portConstraint=eastwest;whiteSpace=wrap;html=1;" vertex="1" parent="moIJlXgWbr4v8lHKHLA2-1">
          <mxGeometry y="248" width="160" height="44" as="geometry" />
        </mxCell>
        <mxCell id="moIJlXgWbr4v8lHKHLA2-64" style="edgeStyle=orthogonalEdgeStyle;rounded=0;orthogonalLoop=1;jettySize=auto;html=1;entryX=0.558;entryY=0.987;entryDx=0;entryDy=0;entryPerimeter=0;" edge="1" parent="1">
          <mxGeometry relative="1" as="geometry">
            <mxPoint x="348.991452991453" y="718.55" as="sourcePoint" />
            <mxPoint x="169.28000000000003" y="660.0039999999999" as="targetPoint" />
            <Array as="points">
              <mxPoint x="349" y="689.55" />
              <mxPoint x="169" y="689.55" />
            </Array>
          </mxGeometry>
        </mxCell>
        <mxCell id="moIJlXgWbr4v8lHKHLA2-12" value="Caminhao" style="swimlane;fontStyle=1;align=center;verticalAlign=top;childLayout=stackLayout;horizontal=1;startSize=26;horizontalStack=0;resizeParent=1;resizeParentMax=0;resizeLast=0;collapsible=1;marginBottom=0;whiteSpace=wrap;html=1;" vertex="1" parent="1">
          <mxGeometry x="284" y="718" width="130" height="120" as="geometry" />
        </mxCell>
        <mxCell id="moIJlXgWbr4v8lHKHLA2-13" value="-pesoLiquido: double&lt;br&gt;-pesoTotal: double&lt;br&gt;- eixos: int" style="text;strokeColor=none;fillColor=none;align=left;verticalAlign=top;spacingLeft=4;spacingRight=4;overflow=hidden;rotatable=0;points=[[0,0.5],[1,0.5]];portConstraint=eastwest;whiteSpace=wrap;html=1;" vertex="1" parent="moIJlXgWbr4v8lHKHLA2-12">
          <mxGeometry y="26" width="130" height="54" as="geometry" />
        </mxCell>
        <mxCell id="moIJlXgWbr4v8lHKHLA2-14" value="" style="line;strokeWidth=1;fillColor=none;align=left;verticalAlign=middle;spacingTop=-1;spacingLeft=3;spacingRight=3;rotatable=0;labelPosition=right;points=[];portConstraint=eastwest;strokeColor=inherit;" vertex="1" parent="moIJlXgWbr4v8lHKHLA2-12">
          <mxGeometry y="80" width="130" height="8" as="geometry" />
        </mxCell>
        <mxCell id="moIJlXgWbr4v8lHKHLA2-15" value="+ Caminhao(..., double,double,int)" style="text;strokeColor=none;fillColor=none;align=left;verticalAlign=top;spacingLeft=4;spacingRight=4;overflow=hidden;rotatable=0;points=[[0,0.5],[1,0.5]];portConstraint=eastwest;whiteSpace=wrap;html=1;" vertex="1" parent="moIJlXgWbr4v8lHKHLA2-12">
          <mxGeometry y="88" width="130" height="32" as="geometry" />
        </mxCell>
        <mxCell id="moIJlXgWbr4v8lHKHLA2-63" style="edgeStyle=orthogonalEdgeStyle;rounded=0;orthogonalLoop=1;jettySize=auto;html=1;entryX=0.558;entryY=1.01;entryDx=0;entryDy=0;entryPerimeter=0;" edge="1" parent="1" source="moIJlXgWbr4v8lHKHLA2-16" target="moIJlXgWbr4v8lHKHLA2-44">
          <mxGeometry relative="1" as="geometry" />
        </mxCell>
        <mxCell id="moIJlXgWbr4v8lHKHLA2-16" value="Carro" style="swimlane;fontStyle=1;align=center;verticalAlign=top;childLayout=stackLayout;horizontal=1;startSize=26;horizontalStack=0;resizeParent=1;resizeParentMax=0;resizeLast=0;collapsible=1;marginBottom=0;whiteSpace=wrap;html=1;" vertex="1" parent="1">
          <mxGeometry x="90" y="720" width="160" height="118" as="geometry" />
        </mxCell>
        <mxCell id="moIJlXgWbr4v8lHKHLA2-17" value="-portas: int&lt;br&gt;-assentos: int" style="text;strokeColor=none;fillColor=none;align=left;verticalAlign=top;spacingLeft=4;spacingRight=4;overflow=hidden;rotatable=0;points=[[0,0.5],[1,0.5]];portConstraint=eastwest;whiteSpace=wrap;html=1;" vertex="1" parent="moIJlXgWbr4v8lHKHLA2-16">
          <mxGeometry y="26" width="160" height="34" as="geometry" />
        </mxCell>
        <mxCell id="moIJlXgWbr4v8lHKHLA2-18" value="" style="line;strokeWidth=1;fillColor=none;align=left;verticalAlign=middle;spacingTop=-1;spacingLeft=3;spacingRight=3;rotatable=0;labelPosition=right;points=[];portConstraint=eastwest;strokeColor=inherit;" vertex="1" parent="moIJlXgWbr4v8lHKHLA2-16">
          <mxGeometry y="60" width="160" height="28" as="geometry" />
        </mxCell>
        <mxCell id="moIJlXgWbr4v8lHKHLA2-19" value="+ Carro(..., int, int)" style="text;strokeColor=none;fillColor=none;align=left;verticalAlign=top;spacingLeft=4;spacingRight=4;overflow=hidden;rotatable=0;points=[[0,0.5],[1,0.5]];portConstraint=eastwest;whiteSpace=wrap;html=1;" vertex="1" parent="moIJlXgWbr4v8lHKHLA2-16">
          <mxGeometry y="88" width="160" height="30" as="geometry" />
        </mxCell>
        <mxCell id="moIJlXgWbr4v8lHKHLA2-65" style="edgeStyle=orthogonalEdgeStyle;rounded=0;orthogonalLoop=1;jettySize=auto;html=1;" edge="1" parent="1" source="moIJlXgWbr4v8lHKHLA2-20">
          <mxGeometry relative="1" as="geometry">
            <mxPoint x="169.67741935483872" y="660.0000000000001" as="targetPoint" />
            <Array as="points">
              <mxPoint x="530" y="690" />
              <mxPoint x="170" y="690" />
            </Array>
          </mxGeometry>
        </mxCell>
        <mxCell id="moIJlXgWbr4v8lHKHLA2-20" value="Motocicleta" style="swimlane;fontStyle=1;align=center;verticalAlign=top;childLayout=stackLayout;horizontal=1;startSize=26;horizontalStack=0;resizeParent=1;resizeParentMax=0;resizeLast=0;collapsible=1;marginBottom=0;whiteSpace=wrap;html=1;" vertex="1" parent="1">
          <mxGeometry x="450" y="720" width="160" height="94" as="geometry" />
        </mxCell>
        <mxCell id="moIJlXgWbr4v8lHKHLA2-21" value="-tipoGuidao: string" style="text;strokeColor=none;fillColor=none;align=left;verticalAlign=top;spacingLeft=4;spacingRight=4;overflow=hidden;rotatable=0;points=[[0,0.5],[1,0.5]];portConstraint=eastwest;whiteSpace=wrap;html=1;" vertex="1" parent="moIJlXgWbr4v8lHKHLA2-20">
          <mxGeometry y="26" width="160" height="34" as="geometry" />
        </mxCell>
        <mxCell id="moIJlXgWbr4v8lHKHLA2-22" value="" style="line;strokeWidth=1;fillColor=none;align=left;verticalAlign=middle;spacingTop=-1;spacingLeft=3;spacingRight=3;rotatable=0;labelPosition=right;points=[];portConstraint=eastwest;strokeColor=inherit;" vertex="1" parent="moIJlXgWbr4v8lHKHLA2-20">
          <mxGeometry y="60" width="160" height="8" as="geometry" />
        </mxCell>
        <mxCell id="moIJlXgWbr4v8lHKHLA2-23" value="+ Motocicleta(string)" style="text;strokeColor=none;fillColor=none;align=left;verticalAlign=top;spacingLeft=4;spacingRight=4;overflow=hidden;rotatable=0;points=[[0,0.5],[1,0.5]];portConstraint=eastwest;whiteSpace=wrap;html=1;" vertex="1" parent="moIJlXgWbr4v8lHKHLA2-20">
          <mxGeometry y="68" width="160" height="26" as="geometry" />
        </mxCell>
        <mxCell id="moIJlXgWbr4v8lHKHLA2-66" style="edgeStyle=orthogonalEdgeStyle;rounded=0;orthogonalLoop=1;jettySize=auto;html=1;" edge="1" parent="1">
          <mxGeometry relative="1" as="geometry">
            <mxPoint x="170.041935483871" y="660.0000000000001" as="targetPoint" />
            <mxPoint x="712.3" y="720" as="sourcePoint" />
            <Array as="points">
              <mxPoint x="712.3" y="690" />
              <mxPoint x="170.3" y="690" />
            </Array>
          </mxGeometry>
        </mxCell>
        <mxCell id="moIJlXgWbr4v8lHKHLA2-24" value="Onibus" style="swimlane;fontStyle=1;align=center;verticalAlign=top;childLayout=stackLayout;horizontal=1;startSize=26;horizontalStack=0;resizeParent=1;resizeParentMax=0;resizeLast=0;collapsible=1;marginBottom=0;whiteSpace=wrap;html=1;" vertex="1" parent="1">
          <mxGeometry x="630" y="720" width="160" height="124" as="geometry" />
        </mxCell>
        <mxCell id="moIJlXgWbr4v8lHKHLA2-25" value="-portas: int&lt;br&gt;-assentos: int&lt;br&gt;- qtdeOcupantes: int" style="text;strokeColor=none;fillColor=none;align=left;verticalAlign=top;spacingLeft=4;spacingRight=4;overflow=hidden;rotatable=0;points=[[0,0.5],[1,0.5]];portConstraint=eastwest;whiteSpace=wrap;html=1;" vertex="1" parent="moIJlXgWbr4v8lHKHLA2-24">
          <mxGeometry y="26" width="160" height="64" as="geometry" />
        </mxCell>
        <mxCell id="moIJlXgWbr4v8lHKHLA2-26" value="" style="line;strokeWidth=1;fillColor=none;align=left;verticalAlign=middle;spacingTop=-1;spacingLeft=3;spacingRight=3;rotatable=0;labelPosition=right;points=[];portConstraint=eastwest;strokeColor=inherit;" vertex="1" parent="moIJlXgWbr4v8lHKHLA2-24">
          <mxGeometry y="90" width="160" height="8" as="geometry" />
        </mxCell>
        <mxCell id="moIJlXgWbr4v8lHKHLA2-27" value="+ Onibus(int,int,int)" style="text;strokeColor=none;fillColor=none;align=left;verticalAlign=top;spacingLeft=4;spacingRight=4;overflow=hidden;rotatable=0;points=[[0,0.5],[1,0.5]];portConstraint=eastwest;whiteSpace=wrap;html=1;" vertex="1" parent="moIJlXgWbr4v8lHKHLA2-24">
          <mxGeometry y="98" width="160" height="26" as="geometry" />
        </mxCell>
        <mxCell id="moIJlXgWbr4v8lHKHLA2-53" style="edgeStyle=orthogonalEdgeStyle;rounded=0;orthogonalLoop=1;jettySize=auto;html=1;entryX=1;entryY=0.5;entryDx=0;entryDy=0;" edge="1" parent="1" source="moIJlXgWbr4v8lHKHLA2-28" target="moIJlXgWbr4v8lHKHLA2-4">
          <mxGeometry relative="1" as="geometry">
            <mxPoint x="450" y="470" as="targetPoint" />
          </mxGeometry>
        </mxCell>
        <mxCell id="moIJlXgWbr4v8lHKHLA2-28" value="Aviao" style="swimlane;fontStyle=1;align=center;verticalAlign=top;childLayout=stackLayout;horizontal=1;startSize=26;horizontalStack=0;resizeParent=1;resizeParentMax=0;resizeLast=0;collapsible=1;marginBottom=0;whiteSpace=wrap;html=1;" vertex="1" parent="1">
          <mxGeometry x="450" y="540" width="160" height="104" as="geometry" />
        </mxCell>
        <mxCell id="moIJlXgWbr4v8lHKHLA2-29" value="-assentos: int&lt;br&gt;-qtdeMotores: int" style="text;strokeColor=none;fillColor=none;align=left;verticalAlign=top;spacingLeft=4;spacingRight=4;overflow=hidden;rotatable=0;points=[[0,0.5],[1,0.5]];portConstraint=eastwest;whiteSpace=wrap;html=1;" vertex="1" parent="moIJlXgWbr4v8lHKHLA2-28">
          <mxGeometry y="26" width="160" height="44" as="geometry" />
        </mxCell>
        <mxCell id="moIJlXgWbr4v8lHKHLA2-30" value="" style="line;strokeWidth=1;fillColor=none;align=left;verticalAlign=middle;spacingTop=-1;spacingLeft=3;spacingRight=3;rotatable=0;labelPosition=right;points=[];portConstraint=eastwest;strokeColor=inherit;" vertex="1" parent="moIJlXgWbr4v8lHKHLA2-28">
          <mxGeometry y="70" width="160" height="8" as="geometry" />
        </mxCell>
        <mxCell id="moIJlXgWbr4v8lHKHLA2-31" value="+ Aviao(int,int)" style="text;strokeColor=none;fillColor=none;align=left;verticalAlign=top;spacingLeft=4;spacingRight=4;overflow=hidden;rotatable=0;points=[[0,0.5],[1,0.5]];portConstraint=eastwest;whiteSpace=wrap;html=1;" vertex="1" parent="moIJlXgWbr4v8lHKHLA2-28">
          <mxGeometry y="78" width="160" height="26" as="geometry" />
        </mxCell>
        <mxCell id="moIJlXgWbr4v8lHKHLA2-37" value="BaseIdentificador&lt;br&gt;&amp;lt;&amp;lt;Abstract&amp;gt;&amp;gt;" style="swimlane;fontStyle=1;align=center;verticalAlign=top;childLayout=stackLayout;horizontal=1;startSize=40;horizontalStack=0;resizeParent=1;resizeParentMax=0;resizeLast=0;collapsible=1;marginBottom=0;whiteSpace=wrap;html=1;" vertex="1" parent="1">
          <mxGeometry x="334" y="30" width="160" height="100" as="geometry" />
        </mxCell>
        <mxCell id="moIJlXgWbr4v8lHKHLA2-38" value="#codigo: int" style="text;strokeColor=none;fillColor=none;align=left;verticalAlign=top;spacingLeft=4;spacingRight=4;overflow=hidden;rotatable=0;points=[[0,0.5],[1,0.5]];portConstraint=eastwest;whiteSpace=wrap;html=1;" vertex="1" parent="moIJlXgWbr4v8lHKHLA2-37">
          <mxGeometry y="40" width="160" height="26" as="geometry" />
        </mxCell>
        <mxCell id="moIJlXgWbr4v8lHKHLA2-39" value="" style="line;strokeWidth=1;fillColor=none;align=left;verticalAlign=middle;spacingTop=-1;spacingLeft=3;spacingRight=3;rotatable=0;labelPosition=right;points=[];portConstraint=eastwest;strokeColor=inherit;" vertex="1" parent="moIJlXgWbr4v8lHKHLA2-37">
          <mxGeometry y="66" width="160" height="8" as="geometry" />
        </mxCell>
        <mxCell id="moIJlXgWbr4v8lHKHLA2-40" value="+ BaseIdentificador(int)" style="text;strokeColor=none;fillColor=none;align=left;verticalAlign=top;spacingLeft=4;spacingRight=4;overflow=hidden;rotatable=0;points=[[0,0.5],[1,0.5]];portConstraint=eastwest;whiteSpace=wrap;html=1;" vertex="1" parent="moIJlXgWbr4v8lHKHLA2-37">
          <mxGeometry y="74" width="160" height="26" as="geometry" />
        </mxCell>
        <mxCell id="moIJlXgWbr4v8lHKHLA2-52" style="edgeStyle=orthogonalEdgeStyle;rounded=0;orthogonalLoop=1;jettySize=auto;html=1;exitX=0.5;exitY=0;exitDx=0;exitDy=0;" edge="1" parent="1" source="moIJlXgWbr4v8lHKHLA2-41" target="moIJlXgWbr4v8lHKHLA2-4">
          <mxGeometry relative="1" as="geometry">
            <mxPoint x="360" y="470" as="targetPoint" />
            <Array as="points">
              <mxPoint x="160" y="480" />
              <mxPoint x="300" y="480" />
              <mxPoint x="300" y="491" />
              <mxPoint x="360" y="491" />
            </Array>
          </mxGeometry>
        </mxCell>
        <mxCell id="moIJlXgWbr4v8lHKHLA2-41" value="BaseDadosGerais&lt;br&gt;&amp;lt;&amp;lt;Abstract&amp;gt;&amp;gt;" style="swimlane;fontStyle=1;align=center;verticalAlign=top;childLayout=stackLayout;horizontal=1;startSize=40;horizontalStack=0;resizeParent=1;resizeParentMax=0;resizeLast=0;collapsible=1;marginBottom=0;whiteSpace=wrap;html=1;" vertex="1" parent="1">
          <mxGeometry x="80" y="500" width="160" height="160" as="geometry" />
        </mxCell>
        <mxCell id="moIJlXgWbr4v8lHKHLA2-42" value="#chassi: string&lt;br&gt;#placa: string&lt;br&gt;#rodas: int&lt;br&gt;#codigoRenavam: string" style="text;strokeColor=none;fillColor=none;align=left;verticalAlign=top;spacingLeft=4;spacingRight=4;overflow=hidden;rotatable=0;points=[[0,0.5],[1,0.5]];portConstraint=eastwest;whiteSpace=wrap;html=1;" vertex="1" parent="moIJlXgWbr4v8lHKHLA2-41">
          <mxGeometry y="40" width="160" height="70" as="geometry" />
        </mxCell>
        <mxCell id="moIJlXgWbr4v8lHKHLA2-43" value="" style="line;strokeWidth=1;fillColor=none;align=left;verticalAlign=middle;spacingTop=-1;spacingLeft=3;spacingRight=3;rotatable=0;labelPosition=right;points=[];portConstraint=eastwest;strokeColor=inherit;" vertex="1" parent="moIJlXgWbr4v8lHKHLA2-41">
          <mxGeometry y="110" width="160" height="8" as="geometry" />
        </mxCell>
        <mxCell id="moIJlXgWbr4v8lHKHLA2-44" value="+ BaseDadosGerais(..., string, string, int, string)" style="text;strokeColor=none;fillColor=none;align=left;verticalAlign=top;spacingLeft=4;spacingRight=4;overflow=hidden;rotatable=0;points=[[0,0.5],[1,0.5]];portConstraint=eastwest;whiteSpace=wrap;html=1;" vertex="1" parent="moIJlXgWbr4v8lHKHLA2-41">
          <mxGeometry y="118" width="160" height="42" as="geometry" />
        </mxCell>
        <mxCell id="moIJlXgWbr4v8lHKHLA2-46" value="IImpressao" style="swimlane;fontStyle=0;childLayout=stackLayout;horizontal=1;startSize=26;fillColor=none;horizontalStack=0;resizeParent=1;resizeParentMax=0;resizeLast=0;collapsible=1;marginBottom=0;whiteSpace=wrap;html=1;" vertex="1" parent="1">
          <mxGeometry x="580" y="400" width="140" height="52" as="geometry" />
        </mxCell>
        <mxCell id="moIJlXgWbr4v8lHKHLA2-47" value="+ Imprimir(): void" style="text;strokeColor=none;fillColor=none;align=left;verticalAlign=top;spacingLeft=4;spacingRight=4;overflow=hidden;rotatable=0;points=[[0,0.5],[1,0.5]];portConstraint=eastwest;whiteSpace=wrap;html=1;" vertex="1" parent="moIJlXgWbr4v8lHKHLA2-46">
          <mxGeometry y="26" width="140" height="26" as="geometry" />
        </mxCell>
        <mxCell id="moIJlXgWbr4v8lHKHLA2-51" style="edgeStyle=orthogonalEdgeStyle;rounded=0;orthogonalLoop=1;jettySize=auto;html=1;entryX=0.594;entryY=-0.017;entryDx=0;entryDy=0;entryPerimeter=0;" edge="1" parent="1" source="moIJlXgWbr4v8lHKHLA2-2" target="moIJlXgWbr4v8lHKHLA2-46">
          <mxGeometry relative="1" as="geometry" />
        </mxCell>
      </root>
    </mxGraphModel>
  </diagram>
</mxfile>
